# xmcd
#
# Track frame offsets:
#  150
#  27551
#  46261
#  75090
#  96204
#  116007
#  134589
#  155146
#  190311
#  207734
#  235408
#  255839
#  288786
#
# Disc length: 4159 seconds
#
# Revision: 0
# Processed by: cddbd v1.5.1PL2 Copyright (c) Steve Scherf et al.
# Submitted via: Collectorz.com_Music_Collector 6.10
#
DISCID=b4103d0d
DTITLE=Bruce Springsteen - Antwerp 96 - Are You Experienced? [CD1)
DYEAR=1996
DGENRE=Alt Country
TTITLE0=The Ghost Of Tom Joad
TTITLE1=Adam Raised A Cain
TTITLE2=Straight Time
TTITLE3=Highway
TTITLE4=Darkness On The Edge Of Town
TTITLE5=Johnny 99
TTITLE6=Mansion On The Hill
TTITLE7=Pilgrim In The Temple Of Love
TTITLE8=Little Things That Count
TTITLE9=Brothers Under The Bridges
TTITLE10=Born In The Usa
TTITLE11=Dry Lightning
TTITLE12=Spare Parts
EXTD=
EXTT0=
EXTT1=
EXTT2=
EXTT3=
EXTT4=
EXTT5=
EXTT6=
EXTT7=
EXTT8=
EXTT9=
EXTT10=
EXTT11=
EXTT12=
PLAYORDER=
